<svg width="428pt" height="298pt" viewBox="0 0 427.78 297.66" xmlns="http://www.w3.org/2000/svg"><g class="graph" transform="translate(4 293.657)"><path fill="#fff" stroke="transparent" d="M-4 4v-297.657h427.784V4H-4z"/><g class="node"><ellipse fill="none" stroke="#000" cx="27" cy="-144.828" rx="27" ry="18"/><text text-anchor="middle" x="27" y="-140.629" font-family="Times,serif" font-size="14">DB</text></g><g class="node"><ellipse fill="none" stroke="#000" cx="153.828" cy="-271.657" rx="63.722" ry="18"/><text text-anchor="middle" x="153.828" y="-267.457" font-family="Times,serif" font-size="14">Subscriptions</text></g><g class="edge"><path fill="none" stroke="#000" d="M42.047-159.875l87.105-87.106"/><path stroke="#000" d="M126.822-249.6l9.546-4.597-4.596 9.546-4.95-4.95z"/></g><g class="node"><ellipse fill="none" stroke="#000" cx="280.657" cy="-144.828" rx="31.899" ry="18"/><text text-anchor="middle" x="280.657" y="-140.629" font-family="Times,serif" font-size="14">View</text></g><g class="edge"><path fill="none" stroke="#000" d="M171.197-254.288l86.258 86.258"/><path stroke="#000" d="M260.1-170.335l4.596 9.546-9.546-4.596 4.95-4.95z"/></g><g class="node"><ellipse fill="none" stroke="#000" cx="153.828" cy="-18" rx="33.627" ry="18"/><text text-anchor="middle" x="153.828" y="-13.8" font-family="Times,serif" font-size="14">Event</text></g><g class="edge"><path fill="none" stroke="#000" d="M264.85-129.022l-87.935 87.936"/><path stroke="#000" d="M179.38-38.602l-9.546 4.596 4.596-9.546 4.95 4.95z"/></g><g class="node"><ellipse fill="none" stroke="#000" cx="386.22" cy="-144.828" rx="33.627" ry="18"/><text text-anchor="middle" x="386.22" y="-140.629" font-family="Times,serif" font-size="14">DOM</text></g><g class="edge"><path fill="none" stroke="#000" d="M310.907-151c10.449-.57 22.348-.719 33.553-.446"/><path stroke="#000" d="M344.63-154.942l9.864 3.865-10.122 3.13.258-6.995z"/></g><g class="edge"><path fill="none" stroke="#000" d="M137.766-34.063l-88.282-88.282"/><path stroke="#000" d="M46.74-120.14l-4.597-9.545 9.546 4.596-4.95 4.95z"/></g><g class="edge"><path fill="none" stroke="#000" d="M354.548-138.583c-10.493.529-22.32.642-33.383.34"/><path stroke="#000" d="M320.709-134.759l-9.85-3.902 10.133-3.092-.283 6.994z"/></g></g></svg>